<svg width="2008" height="208" viewBox="0 0 2008 208" fill="none" xmlns="http://www.w3.org/2000/svg">
<rect width="2008" height="208" fill="#1E1E1E"/>
<g id="Header" clip-path="url(#clip0_0_1)" filter="url(#filter0_d_0_1)">
<rect width="2000" height="200" transform="translate(4)" fill="white"/>
<g id="upper-background">
<rect width="2000" height="58" transform="translate(4 -13)" fill="#EEE0C9"/>
</g>
<g id="header-items">
<path id="Line 1" d="M3 45H943" stroke="black"/>
<path id="Line 2" d="M1063 45L2005 45" stroke="black"/>
<line id="Line 4" x1="954" y1="10.5" x2="1054" y2="10.5" stroke="black"/>
<path id="MG SHOPPING" d="M925.804 80.048H925.708V88.208C925.708 88.6027 925.799 88.9173 925.98 89.152C926.172 89.376 926.418 89.488 926.716 89.488H927.292V90H923.484V89.488H924.06C924.359 89.488 924.599 89.376 924.78 89.152C924.972 88.9173 925.068 88.6027 925.068 88.208V79.552C925.068 79.4027 925.031 79.296 924.956 79.232C924.892 79.1573 924.786 79.12 924.636 79.12H923.484V78.608H926.876L929.484 87.424L931.916 78.608H935.228V79.12H934.076C933.927 79.12 933.815 79.1573 933.74 79.232C933.676 79.296 933.644 79.4027 933.644 79.552V89.056C933.644 89.344 933.788 89.488 934.076 89.488H935.228V90H930.588V89.488H931.74C932.028 89.488 932.172 89.344 932.172 89.056V79.616L929.244 90.192H928.86L925.804 80.048ZM946.298 90.288C945.381 90.288 944.581 90.0213 943.898 89.488C943.226 88.944 942.709 88.2133 942.346 87.296C941.994 86.368 941.818 85.3387 941.818 84.208C941.818 83.1307 942 82.144 942.362 81.248C942.725 80.352 943.242 79.6427 943.914 79.12C944.586 78.5867 945.37 78.32 946.266 78.32C946.736 78.32 947.178 78.4267 947.594 78.64C948.01 78.8533 948.352 79.0827 948.618 79.328C948.874 79.5627 949.045 79.68 949.13 79.68C949.216 79.68 949.274 79.6533 949.306 79.6C949.349 79.5467 949.392 79.4613 949.434 79.344L949.738 78.448H950.138L950.202 83.408H949.754C949.52 82.3947 949.216 81.5467 948.842 80.864C948.469 80.1707 948.058 79.6587 947.61 79.328C947.173 78.9973 946.736 78.832 946.298 78.832C945.562 78.832 944.992 79.056 944.586 79.504C944.181 79.9413 943.898 80.5547 943.738 81.344C943.589 82.1333 943.514 83.12 943.514 84.304C943.514 85.488 943.589 86.4747 943.738 87.264C943.898 88.0533 944.181 88.672 944.586 89.12C944.992 89.5573 945.562 89.776 946.298 89.776C946.693 89.776 947.072 89.6373 947.434 89.36C947.797 89.072 948.09 88.7093 948.314 88.272C948.549 87.8347 948.666 87.4027 948.666 86.976V85.536C948.666 85.3867 948.629 85.28 948.554 85.216C948.49 85.1413 948.384 85.104 948.234 85.104H946.458V84.592H951.738V85.104H950.57C950.421 85.104 950.309 85.1413 950.234 85.216C950.17 85.28 950.138 85.3867 950.138 85.536V90.208H949.626V88.752C949.626 88.5707 949.605 88.4373 949.562 88.352C949.52 88.256 949.45 88.208 949.354 88.208C949.237 88.208 949.136 88.2507 949.05 88.336C948.965 88.4213 948.88 88.5387 948.794 88.688C948.549 89.0827 948.202 89.4507 947.754 89.792C947.306 90.1227 946.821 90.288 946.298 90.288ZM971.914 90.288C971.466 90.288 971.024 90.192 970.586 90C970.16 89.7973 969.786 89.5787 969.466 89.344C969.018 89.0027 968.752 88.832 968.666 88.832C968.453 88.832 968.314 89.0613 968.25 89.52L968.186 90.16H967.818L967.706 85.104H968.09C968.154 85.8933 968.373 86.6507 968.746 87.376C969.13 88.0907 969.605 88.672 970.17 89.12C970.736 89.5573 971.317 89.776 971.914 89.776C972.789 89.776 973.424 89.5627 973.818 89.136C974.224 88.7093 974.426 88.1973 974.426 87.6C974.426 87.0773 974.272 86.6667 973.962 86.368C973.664 86.0693 973.221 85.8027 972.634 85.568L970.202 84.592C969.36 84.2507 968.736 83.8133 968.33 83.28C967.936 82.736 967.738 82.0853 967.738 81.328C967.738 80.304 968.037 79.5467 968.634 79.056C969.232 78.5653 969.978 78.32 970.874 78.32C971.578 78.32 972.357 78.64 973.21 79.28C973.317 79.3547 973.424 79.424 973.53 79.488C973.637 79.5413 973.733 79.568 973.818 79.568C974 79.568 974.106 79.44 974.138 79.184L974.202 78.608H974.586L974.746 82.768H974.362C974.192 82 973.92 81.3173 973.546 80.72C973.184 80.1227 972.757 79.6587 972.266 79.328C971.776 78.9973 971.269 78.832 970.746 78.832C970.149 78.832 969.658 79.0293 969.274 79.424C968.89 79.808 968.698 80.3467 968.698 81.04C968.698 81.52 968.821 81.8933 969.066 82.16C969.312 82.4267 969.674 82.656 970.154 82.848L973.242 84.08C973.957 84.368 974.49 84.7787 974.842 85.312C975.205 85.8453 975.386 86.4053 975.386 86.992C975.386 87.5573 975.258 88.0907 975.002 88.592C974.757 89.0933 974.373 89.504 973.85 89.824C973.338 90.1333 972.693 90.288 971.914 90.288ZM982.012 89.488H983.164C983.452 89.488 983.596 89.344 983.596 89.056V79.552C983.596 79.264 983.452 79.12 983.164 79.12H982.012V78.608H986.652V79.12H985.5C985.212 79.12 985.068 79.264 985.068 79.552V83.76H989.9V79.552C989.9 79.264 989.756 79.12 989.468 79.12H988.316V78.608H992.956V79.12H991.804C991.516 79.12 991.372 79.264 991.372 79.552V89.056C991.372 89.344 991.516 89.488 991.804 89.488H992.956V90H988.316V89.488H989.468C989.756 89.488 989.9 89.344 989.9 89.056V84.272H985.068V89.056C985.068 89.344 985.212 89.488 985.5 89.488H986.652V90H982.012V89.488ZM1004.19 90.288C1003.29 90.288 1002.49 90.0053 1001.79 89.44C1001.09 88.8747 1000.54 88.1333 1000.14 87.216C999.747 86.288 999.55 85.3173 999.55 84.304C999.55 83.2907 999.747 82.3253 1000.14 81.408C1000.54 80.48 1001.09 79.7333 1001.79 79.168C1002.49 78.6027 1003.29 78.32 1004.19 78.32C1005.09 78.32 1005.89 78.6027 1006.59 79.168C1007.29 79.7333 1007.84 80.48 1008.24 81.408C1008.63 82.3253 1008.83 83.2907 1008.83 84.304C1008.83 85.3173 1008.63 86.288 1008.24 87.216C1007.84 88.1333 1007.29 88.8747 1006.59 89.44C1005.89 90.0053 1005.09 90.288 1004.19 90.288ZM1004.19 89.776C1005.24 89.776 1005.99 89.3013 1006.45 88.352C1006.9 87.392 1007.13 86.0427 1007.13 84.304C1007.13 82.5547 1006.9 81.2053 1006.45 80.256C1005.99 79.3067 1005.24 78.832 1004.19 78.832C1003.14 78.832 1002.39 79.3067 1001.93 80.256C1001.48 81.2053 1001.25 82.5547 1001.25 84.304C1001.25 86.0427 1001.48 87.392 1001.93 88.352C1002.39 89.3013 1003.14 89.776 1004.19 89.776ZM1015.42 89.488H1016.58C1016.86 89.488 1017.01 89.344 1017.01 89.056V79.552C1017.01 79.4027 1016.97 79.296 1016.9 79.232C1016.83 79.1573 1016.73 79.12 1016.58 79.12H1015.42V78.608H1020.77C1021.52 78.608 1022.18 78.736 1022.75 78.992C1023.34 79.2373 1023.79 79.5893 1024.11 80.048C1024.44 80.496 1024.61 81.008 1024.61 81.584C1024.61 82.1707 1024.44 82.6933 1024.11 83.152C1023.79 83.6107 1023.34 83.9733 1022.75 84.24C1022.18 84.496 1021.52 84.624 1020.77 84.624H1018.48V89.056C1018.48 89.2053 1018.51 89.3173 1018.58 89.392C1018.64 89.456 1018.75 89.488 1018.91 89.488H1020.32V90H1015.42V89.488ZM1020.98 84.112C1021.55 84.112 1022.02 83.8667 1022.37 83.376C1022.73 82.8747 1022.91 82.2773 1022.91 81.584C1022.91 80.8907 1022.74 80.3093 1022.38 79.84C1022.03 79.36 1021.56 79.12 1020.98 79.12H1018.91C1018.76 79.12 1018.65 79.1573 1018.58 79.232C1018.51 79.296 1018.48 79.4027 1018.48 79.552V84.112H1020.98ZM1031.1 89.488H1032.25C1032.54 89.488 1032.68 89.344 1032.68 89.056V79.552C1032.68 79.4027 1032.65 79.296 1032.57 79.232C1032.51 79.1573 1032.4 79.12 1032.25 79.12H1031.1V78.608H1036.44C1037.19 78.608 1037.85 78.736 1038.43 78.992C1039.01 79.2373 1039.47 79.5893 1039.79 80.048C1040.12 80.496 1040.28 81.008 1040.28 81.584C1040.28 82.1707 1040.12 82.6933 1039.79 83.152C1039.47 83.6107 1039.01 83.9733 1038.43 84.24C1037.85 84.496 1037.19 84.624 1036.44 84.624H1034.16V89.056C1034.16 89.2053 1034.19 89.3173 1034.25 89.392C1034.32 89.456 1034.43 89.488 1034.59 89.488H1036V90H1031.1V89.488ZM1036.65 84.112C1037.23 84.112 1037.69 83.8667 1038.04 83.376C1038.41 82.8747 1038.59 82.2773 1038.59 81.584C1038.59 80.8907 1038.41 80.3093 1038.06 79.84C1037.71 79.36 1037.24 79.12 1036.65 79.12H1034.59C1034.44 79.12 1034.33 79.1573 1034.25 79.232C1034.19 79.296 1034.16 79.4027 1034.16 79.552V84.112H1036.65ZM1046.77 89.488H1047.93C1048.21 89.488 1048.36 89.344 1048.36 89.056V79.552C1048.36 79.4027 1048.32 79.296 1048.25 79.232C1048.18 79.1573 1048.08 79.12 1047.93 79.12H1046.77V78.608H1051.41V79.12H1050.26C1050.11 79.12 1050 79.1573 1049.93 79.232C1049.86 79.296 1049.83 79.4027 1049.83 79.552V89.056C1049.83 89.344 1049.97 89.488 1050.26 89.488H1051.41V90H1046.77V89.488ZM1060.16 80.352H1060.1V88.208C1060.1 88.6027 1060.19 88.9173 1060.37 89.152C1060.56 89.376 1060.81 89.488 1061.1 89.488H1061.68V90H1057.87V89.488H1058.45C1058.76 89.488 1059 89.376 1059.18 89.152C1059.37 88.9173 1059.46 88.6027 1059.46 88.208V79.552C1059.45 79.4027 1059.41 79.296 1059.34 79.232C1059.28 79.1573 1059.17 79.12 1059.02 79.12H1057.87V78.608H1060.9L1066.45 87.536V80.4C1066.45 80.0053 1066.36 79.696 1066.18 79.472C1065.99 79.2373 1065.75 79.12 1065.46 79.12H1064.88V78.608H1068.69V79.12H1068.11C1067.81 79.12 1067.57 79.2373 1067.38 79.472C1067.18 79.696 1067.09 80.0053 1067.09 80.4V90.288H1066.45L1060.16 80.352ZM1079.59 90.288C1078.67 90.288 1077.87 90.0213 1077.19 89.488C1076.52 88.944 1076 88.2133 1075.64 87.296C1075.29 86.368 1075.11 85.3387 1075.11 84.208C1075.11 83.1307 1075.29 82.144 1075.66 81.248C1076.02 80.352 1076.54 79.6427 1077.21 79.12C1077.88 78.5867 1078.66 78.32 1079.56 78.32C1080.03 78.32 1080.47 78.4267 1080.89 78.64C1081.3 78.8533 1081.65 79.0827 1081.91 79.328C1082.17 79.5627 1082.34 79.68 1082.42 79.68C1082.51 79.68 1082.57 79.6533 1082.6 79.6C1082.64 79.5467 1082.69 79.4613 1082.73 79.344L1083.03 78.448H1083.43L1083.5 83.408H1083.05C1082.81 82.3947 1082.51 81.5467 1082.14 80.864C1081.76 80.1707 1081.35 79.6587 1080.9 79.328C1080.47 78.9973 1080.03 78.832 1079.59 78.832C1078.86 78.832 1078.29 79.056 1077.88 79.504C1077.47 79.9413 1077.19 80.5547 1077.03 81.344C1076.88 82.1333 1076.81 83.12 1076.81 84.304C1076.81 85.488 1076.88 86.4747 1077.03 87.264C1077.19 88.0533 1077.47 88.672 1077.88 89.12C1078.29 89.5573 1078.86 89.776 1079.59 89.776C1079.99 89.776 1080.37 89.6373 1080.73 89.36C1081.09 89.072 1081.38 88.7093 1081.61 88.272C1081.84 87.8347 1081.96 87.4027 1081.96 86.976V85.536C1081.96 85.3867 1081.92 85.28 1081.85 85.216C1081.78 85.1413 1081.68 85.104 1081.53 85.104H1079.75V84.592H1085.03V85.104H1083.86C1083.71 85.104 1083.6 85.1413 1083.53 85.216C1083.46 85.28 1083.43 85.3867 1083.43 85.536V90.208H1082.92V88.752C1082.92 88.5707 1082.9 88.4373 1082.86 88.352C1082.81 88.256 1082.74 88.208 1082.65 88.208C1082.53 88.208 1082.43 88.2507 1082.34 88.336C1082.26 88.4213 1082.17 88.5387 1082.09 88.688C1081.84 89.0827 1081.5 89.4507 1081.05 89.792C1080.6 90.1227 1080.11 90.288 1079.59 90.288Z" fill="#3D3B3A"/>
<path id="Best Quality" d="M960.313 99.68H961.033C961.213 99.68 961.303 99.59 961.303 99.41V93.47C961.303 93.3767 961.28 93.31 961.233 93.27C961.193 93.2233 961.127 93.2 961.033 93.2H960.313V92.88H963.573C963.967 92.88 964.333 92.9533 964.673 93.1C965.02 93.2467 965.297 93.45 965.503 93.71C965.71 93.9633 965.813 94.2533 965.813 94.58C965.813 95.0333 965.66 95.4067 965.353 95.7C965.047 95.9933 964.69 96.1833 964.283 96.27V96.31C964.557 96.33 964.827 96.4167 965.093 96.57C965.367 96.7167 965.59 96.92 965.763 97.18C965.943 97.44 966.033 97.7333 966.033 98.06C966.033 98.4667 965.927 98.8167 965.713 99.11C965.5 99.4033 965.213 99.6267 964.853 99.78C964.5 99.9267 964.11 100 963.683 100H960.313V99.68ZM963.533 96.12C964.073 96.12 964.44 95.9833 964.633 95.71C964.833 95.43 964.933 95.0533 964.933 94.58C964.933 94.18 964.807 93.85 964.553 93.59C964.3 93.33 963.987 93.2 963.613 93.2H962.493C962.4 93.2 962.33 93.2233 962.283 93.27C962.243 93.31 962.223 93.3767 962.223 93.47V96.12H963.533ZM963.573 99.68C963.98 99.68 964.313 99.56 964.573 99.32C964.84 99.0733 964.973 98.6533 964.973 98.06C964.973 97.4667 964.84 97.05 964.573 96.81C964.313 96.5633 963.98 96.44 963.573 96.44H962.223V99.41C962.223 99.59 962.313 99.68 962.493 99.68H963.573ZM972.138 100.12C971.518 100.12 971.018 99.91 970.638 99.49C970.264 99.07 970.078 98.4867 970.078 97.74C970.078 97.3133 970.161 96.9167 970.328 96.55C970.494 96.1767 970.724 95.88 971.018 95.66C971.318 95.4333 971.651 95.32 972.018 95.32C972.424 95.32 972.758 95.43 973.018 95.65C973.278 95.87 973.464 96.15 973.578 96.49C973.698 96.8233 973.758 97.1667 973.758 97.52C973.758 97.5933 973.734 97.6433 973.688 97.67C973.641 97.69 973.561 97.7 973.448 97.7H970.958C970.958 98.3667 971.051 98.8967 971.238 99.29C971.431 99.6833 971.744 99.88 972.178 99.88C972.484 99.88 972.771 99.7633 973.038 99.53C973.311 99.2967 973.484 98.9333 973.558 98.44H973.798C973.758 98.9267 973.588 99.33 973.288 99.65C972.994 99.9633 972.611 100.12 972.138 100.12ZM972.898 97.46C972.898 96.9267 972.828 96.4767 972.688 96.11C972.548 95.7433 972.318 95.56 971.998 95.56C971.658 95.56 971.398 95.7467 971.218 96.12C971.044 96.4867 970.958 96.9333 970.958 97.46H972.898ZM977.797 98.14H977.977L978.347 98.93C978.707 99.5633 979.174 99.88 979.747 99.88C980.054 99.88 980.281 99.8067 980.427 99.66C980.581 99.5067 980.657 99.3 980.657 99.04C980.657 98.8867 980.597 98.75 980.477 98.63C980.364 98.5033 980.211 98.4033 980.017 98.33L978.877 97.87C978.517 97.7233 978.234 97.5467 978.027 97.34C977.821 97.1333 977.717 96.87 977.717 96.55C977.717 96.1433 977.844 95.8367 978.097 95.63C978.351 95.4233 978.671 95.32 979.057 95.32C979.251 95.32 979.431 95.3533 979.597 95.42C979.771 95.48 979.914 95.5533 980.027 95.64C980.174 95.7467 980.284 95.8 980.357 95.8C980.444 95.8 980.497 95.74 980.517 95.62L980.537 95.42H980.717V96.94H980.537L980.397 96.59C980.244 96.21 980.041 95.9433 979.787 95.79C979.541 95.6367 979.294 95.56 979.047 95.56C978.801 95.56 978.597 95.6233 978.437 95.75C978.277 95.87 978.197 96.04 978.197 96.26C978.197 96.4533 978.274 96.6133 978.427 96.74C978.587 96.86 978.804 96.9767 979.077 97.09L980.157 97.54C980.477 97.6733 980.717 97.8367 980.877 98.03C981.037 98.2167 981.117 98.48 981.117 98.82C981.117 99.2667 980.991 99.5967 980.737 99.81C980.484 100.017 980.151 100.12 979.737 100.12C979.491 100.12 979.291 100.087 979.137 100.02C978.984 99.9533 978.834 99.8633 978.687 99.75C978.627 99.7033 978.567 99.6633 978.507 99.63C978.447 99.5967 978.394 99.58 978.347 99.58C978.187 99.58 978.077 99.6933 978.017 99.92L977.977 100.12H977.797V98.14ZM986.593 100.12C986.293 100.12 986.043 100.013 985.843 99.8C985.65 99.5867 985.553 99.2967 985.553 98.93V95.72H984.813V95.44H985.033C985.333 95.44 985.567 95.28 985.733 94.96C985.907 94.6333 985.993 94.2733 985.993 93.88V93.52H986.273V95.44H987.513V95.72H986.273V98.98C986.273 99.18 986.313 99.3467 986.393 99.48C986.473 99.6133 986.61 99.68 986.803 99.68C987.277 99.68 987.513 99.28 987.513 98.48H987.693C987.693 98.9267 987.627 99.3133 987.493 99.64C987.367 99.96 987.067 100.12 986.593 100.12ZM1002.18 101.68C1001.78 101.68 1001.5 101.53 1001.34 101.23C1001.18 100.93 1001.09 100.547 1001.05 100.08C1000.81 100.147 1000.61 100.18 1000.43 100.18C999.872 100.18 999.369 100 998.922 99.64C998.482 99.28 998.139 98.81 997.892 98.23C997.652 97.65 997.532 97.04 997.532 96.4C997.532 95.7667 997.655 95.1667 997.902 94.6C998.149 94.0267 998.492 93.5667 998.932 93.22C999.372 92.8733 999.872 92.7 1000.43 92.7C1000.99 92.7 1001.49 92.8733 1001.93 93.22C1002.37 93.5667 1002.72 94.0267 1002.96 94.6C1003.21 95.1667 1003.33 95.7667 1003.33 96.4C1003.33 97.1267 1003.19 97.7967 1002.9 98.41C1002.62 99.0233 1002.22 99.49 1001.68 99.81C1001.76 100.157 1001.86 100.433 1001.98 100.64C1002.12 100.853 1002.29 100.96 1002.5 100.96C1002.76 100.96 1002.93 100.823 1003.01 100.55C1003.1 100.283 1003.14 99.9333 1003.14 99.5H1003.33C1003.33 100.173 1003.25 100.703 1003.09 101.09C1002.94 101.483 1002.64 101.68 1002.18 101.68ZM999.482 99.53C999.449 99.45 999.432 99.3567 999.432 99.25C999.432 98.97 999.525 98.74 999.712 98.56C999.899 98.38 1000.13 98.29 1000.4 98.29C1000.72 98.29 1000.97 98.39 1001.15 98.59C1001.34 98.79 1001.48 99.05 1001.56 99.37C1001.82 99.11 1002 98.7333 1002.1 98.24C1002.22 97.7467 1002.27 97.1333 1002.27 96.4C1002.27 95.3133 1002.13 94.48 1001.84 93.9C1001.56 93.3133 1001.09 93.02 1000.43 93.02C999.772 93.02 999.299 93.3133 999.012 93.9C998.732 94.48 998.592 95.3133 998.592 96.4C998.592 97.0867 998.652 97.7067 998.772 98.26C998.892 98.8133 999.125 99.24 999.472 99.54L999.482 99.53ZM1000.43 99.86C1000.65 99.86 1000.84 99.8233 1001.02 99.75C1001 99.41 1000.95 99.1367 1000.86 98.93C1000.78 98.7167 1000.61 98.61 1000.37 98.61C1000.2 98.61 1000.06 98.67 999.942 98.79C999.829 98.9033 999.772 99.06 999.772 99.26C999.772 99.66 999.992 99.86 1000.43 99.86ZM1009.13 100.12C1008.65 100.12 1008.3 99.97 1008.09 99.67C1007.89 99.37 1007.79 99.01 1007.79 98.59V95.9C1007.79 95.82 1007.78 95.7633 1007.74 95.73C1007.71 95.6967 1007.65 95.68 1007.57 95.68H1007.15V95.44H1008.51V98.78C1008.51 99.0733 1008.57 99.3233 1008.68 99.53C1008.8 99.7367 1009 99.84 1009.28 99.84C1009.52 99.84 1009.72 99.76 1009.9 99.6C1010.09 99.4333 1010.23 99.21 1010.33 98.93C1010.44 98.6433 1010.49 98.3267 1010.49 97.98V95.9C1010.49 95.82 1010.48 95.7633 1010.44 95.73C1010.41 95.6967 1010.35 95.68 1010.27 95.68H1009.85V95.44H1011.21V99.54C1011.21 99.62 1011.23 99.6767 1011.26 99.71C1011.3 99.7433 1011.35 99.76 1011.43 99.76H1011.85V100H1010.49V99.18L1010.45 99.17C1010.3 99.49 1010.11 99.73 1009.88 99.89C1009.66 100.043 1009.41 100.12 1009.13 100.12ZM1016.94 100.12C1016.58 100.12 1016.28 100.033 1016.02 99.86C1015.76 99.6867 1015.64 99.38 1015.64 98.94C1015.64 98.6 1015.72 98.3333 1015.9 98.14C1016.07 97.9467 1016.27 97.81 1016.5 97.73C1016.73 97.6433 1017.01 97.57 1017.34 97.51L1018.26 97.34V96.49C1018.26 95.87 1017.95 95.56 1017.33 95.56C1017.1 95.56 1016.89 95.62 1016.71 95.74C1016.52 95.8533 1016.43 95.9833 1016.43 96.13C1016.43 96.1967 1016.44 96.2467 1016.46 96.28C1016.47 96.3 1016.49 96.32 1016.52 96.34C1016.55 96.36 1016.58 96.3733 1016.61 96.38C1016.73 96.4133 1016.82 96.46 1016.88 96.52C1016.94 96.58 1016.98 96.6633 1016.98 96.77C1016.98 96.91 1016.93 97.01 1016.85 97.07C1016.77 97.13 1016.66 97.16 1016.54 97.16C1016.39 97.16 1016.26 97.1033 1016.14 96.99C1016.02 96.8767 1015.96 96.7133 1015.96 96.5C1015.96 96.2533 1016.02 96.04 1016.16 95.86C1016.3 95.68 1016.47 95.5467 1016.69 95.46C1016.91 95.3667 1017.13 95.32 1017.36 95.32C1017.8 95.32 1018.18 95.4367 1018.5 95.67C1018.82 95.8967 1018.98 96.2533 1018.98 96.74V99.2C1018.98 99.5333 1019.08 99.7 1019.29 99.7C1019.45 99.7 1019.57 99.6033 1019.65 99.41C1019.72 99.2167 1019.76 98.98 1019.76 98.7H1019.94C1019.94 99.1 1019.88 99.4367 1019.76 99.71C1019.64 99.9833 1019.44 100.12 1019.14 100.12C1018.85 100.12 1018.63 100.037 1018.49 99.87C1018.35 99.6967 1018.27 99.46 1018.26 99.16L1018.21 99.14C1018.11 99.3733 1017.94 99.5967 1017.72 99.81C1017.5 100.017 1017.24 100.12 1016.94 100.12ZM1017.1 99.76C1017.4 99.76 1017.63 99.6433 1017.8 99.41C1017.97 99.17 1018.12 98.8667 1018.26 98.5V97.55L1017.39 97.74C1017.07 97.8067 1016.83 97.94 1016.69 98.14C1016.55 98.3333 1016.48 98.61 1016.48 98.97C1016.48 99.2767 1016.54 99.4867 1016.67 99.6C1016.79 99.7067 1016.94 99.76 1017.1 99.76ZM1023.4 99.76H1023.92C1024 99.76 1024.05 99.7433 1024.09 99.71C1024.12 99.6767 1024.14 99.62 1024.14 99.54V93.34C1024.14 93.26 1024.12 93.2033 1024.09 93.17C1024.05 93.1367 1024 93.12 1023.92 93.12H1023.4V92.88H1024.86V99.54C1024.86 99.62 1024.87 99.6767 1024.91 99.71C1024.94 99.7433 1025 99.76 1025.08 99.76H1025.6V100H1023.4V99.76ZM1030.13 94.2C1029.99 94.2 1029.86 94.15 1029.76 94.05C1029.66 93.95 1029.61 93.8267 1029.61 93.68C1029.61 93.5267 1029.66 93.4033 1029.76 93.31C1029.86 93.21 1029.99 93.16 1030.13 93.16C1030.29 93.16 1030.41 93.21 1030.5 93.31C1030.6 93.4033 1030.65 93.5267 1030.65 93.68C1030.65 93.8267 1030.6 93.95 1030.5 94.05C1030.41 94.15 1030.29 94.2 1030.13 94.2ZM1029.19 99.76H1029.61C1029.69 99.76 1029.75 99.7433 1029.78 99.71C1029.82 99.6767 1029.83 99.62 1029.83 99.54V95.9C1029.83 95.82 1029.82 95.7633 1029.78 95.73C1029.75 95.6967 1029.69 95.68 1029.61 95.68H1029.19V95.44H1030.55V99.54C1030.55 99.62 1030.57 99.6767 1030.6 99.71C1030.64 99.7433 1030.69 99.76 1030.77 99.76H1031.19V100H1029.19V99.76ZM1036.57 100.12C1036.27 100.12 1036.02 100.013 1035.82 99.8C1035.62 99.5867 1035.53 99.2967 1035.53 98.93V95.72H1034.79V95.44H1035.01C1035.31 95.44 1035.54 95.28 1035.71 94.96C1035.88 94.6333 1035.97 94.2733 1035.97 93.88V93.52H1036.25V95.44H1037.49V95.72H1036.25V98.98C1036.25 99.18 1036.29 99.3467 1036.37 99.48C1036.45 99.6133 1036.58 99.68 1036.78 99.68C1037.25 99.68 1037.49 99.28 1037.49 98.48H1037.67C1037.67 98.9267 1037.6 99.3133 1037.47 99.64C1037.34 99.96 1037.04 100.12 1036.57 100.12ZM1042.34 102.38C1042.08 102.38 1041.87 102.297 1041.7 102.13C1041.62 102.05 1041.55 101.953 1041.49 101.84C1041.45 101.733 1041.42 101.62 1041.42 101.5C1041.42 101.413 1041.44 101.33 1041.46 101.25C1041.5 101.177 1041.54 101.12 1041.58 101.08C1041.68 100.98 1041.8 100.93 1041.92 100.93C1042.08 100.93 1042.19 100.977 1042.26 101.07C1042.34 101.17 1042.38 101.293 1042.38 101.44C1042.38 101.52 1042.36 101.613 1042.3 101.72C1042.26 101.787 1042.24 101.85 1042.24 101.91C1042.24 102.01 1042.31 102.06 1042.44 102.06C1042.64 102.06 1042.81 101.98 1042.94 101.82C1043.08 101.667 1043.19 101.483 1043.25 101.27L1043.52 100.4L1042.1 96.27C1042.02 96.0567 1041.95 95.9067 1041.87 95.82C1041.8 95.7267 1041.68 95.68 1041.51 95.68H1041.18V95.44H1043.44V95.68H1043.12C1043.04 95.68 1042.97 95.7033 1042.9 95.75C1042.84 95.79 1042.8 95.8467 1042.8 95.92C1042.8 96.0333 1042.82 96.1433 1042.86 96.25L1043.9 99.32L1044.73 96.58C1044.76 96.5 1044.78 96.41 1044.8 96.31C1044.83 96.21 1044.84 96.13 1044.84 96.07C1044.84 95.9567 1044.81 95.8633 1044.74 95.79C1044.68 95.7167 1044.59 95.68 1044.48 95.68H1044.24V95.44H1046.06V95.68H1045.83C1045.69 95.68 1045.55 95.73 1045.42 95.83C1045.3 95.9233 1045.21 96.07 1045.14 96.27L1043.53 101.39C1043.46 101.637 1043.32 101.863 1043.11 102.07C1042.91 102.277 1042.65 102.38 1042.34 102.38Z" fill="#3D3B3A"/>
<path id="Line 5" d="M1078.98 45.0761L1060.81 30.2532L1054.09 9.99999" stroke="black"/>
<path id="Line 6" d="M929 45.0761L947.175 30.2532L953.893 9.99999" stroke="black"/>
<path id="Vector 1" d="M1044.48 23.5L1046.94 32H960.525L963.275 23.5H1044.48Z" stroke="white" stroke-width="20"/>
<path id="MG" d="M975.41 29.9H975.11V55.4C975.11 56.6333 975.393 57.6167 975.96 58.35C976.56 59.05 977.326 59.4 978.26 59.4H980.06V61H968.16V59.4H969.96C970.893 59.4 971.643 59.05 972.21 58.35C972.81 57.6167 973.11 56.6333 973.11 55.4V28.35C973.11 27.8833 972.993 27.55 972.76 27.35C972.56 27.1167 972.226 27 971.76 27H968.16V25.4H978.76L986.91 52.95L994.51 25.4H1004.86V27H1001.26C1000.79 27 1000.44 27.1167 1000.21 27.35C1000.01 27.55 999.91 27.8833 999.91 28.35V58.05C999.91 58.95 1000.36 59.4 1001.26 59.4H1004.86V61H990.36V59.4H993.96C994.86 59.4 995.31 58.95 995.31 58.05V28.55L986.16 61.6H984.96L975.41 29.9ZM1024.45 61.9C1021.59 61.9 1019.09 61.0667 1016.95 59.4C1014.85 57.7 1013.24 55.4167 1012.1 52.55C1011 49.65 1010.45 46.4333 1010.45 42.9C1010.45 39.5333 1011.02 36.45 1012.15 33.65C1013.29 30.85 1014.9 28.6333 1017 27C1019.1 25.3333 1021.55 24.5 1024.35 24.5C1025.82 24.5 1027.2 24.8333 1028.5 25.5C1029.8 26.1667 1030.87 26.8833 1031.7 27.65C1032.5 28.3833 1033.04 28.75 1033.3 28.75C1033.57 28.75 1033.75 28.6667 1033.85 28.5C1033.99 28.3333 1034.12 28.0667 1034.25 27.7L1035.2 24.9H1036.45L1036.65 40.4H1035.25C1034.52 37.2333 1033.57 34.5833 1032.4 32.45C1031.24 30.2833 1029.95 28.6833 1028.55 27.65C1027.19 26.6167 1025.82 26.1 1024.45 26.1C1022.15 26.1 1020.37 26.8 1019.1 28.2C1017.84 29.5667 1016.95 31.4833 1016.45 33.95C1015.99 36.4167 1015.75 39.5 1015.75 43.2C1015.75 46.9 1015.99 49.9833 1016.45 52.45C1016.95 54.9167 1017.84 56.85 1019.1 58.25C1020.37 59.6167 1022.15 60.3 1024.45 60.3C1025.69 60.3 1026.87 59.8667 1028 59C1029.14 58.1 1030.05 56.9667 1030.75 55.6C1031.49 54.2333 1031.85 52.8833 1031.85 51.55V47.05C1031.85 46.5833 1031.74 46.25 1031.5 46.05C1031.3 45.8167 1030.97 45.7 1030.5 45.7H1024.95V44.1H1041.45V45.7H1037.8C1037.34 45.7 1036.99 45.8167 1036.75 46.05C1036.55 46.25 1036.45 46.5833 1036.45 47.05V61.65H1034.85V57.1C1034.85 56.5333 1034.79 56.1167 1034.65 55.85C1034.52 55.55 1034.3 55.4 1034 55.4C1033.64 55.4 1033.32 55.5333 1033.05 55.8C1032.79 56.0667 1032.52 56.4333 1032.25 56.9C1031.49 58.1333 1030.4 59.2833 1029 60.35C1027.6 61.3833 1026.09 61.9 1024.45 61.9Z" fill="#3D3B3A"/>
</g>
</g>
<defs>
<filter id="filter0_d_0_1" x="0" y="0" width="2008" height="208" filterUnits="userSpaceOnUse" color-interpolation-filters="sRGB">
<feFlood flood-opacity="0" result="BackgroundImageFix"/>
<feColorMatrix in="SourceAlpha" type="matrix" values="0 0 0 0 0 0 0 0 0 0 0 0 0 0 0 0 0 0 127 0" result="hardAlpha"/>
<feOffset dy="4"/>
<feGaussianBlur stdDeviation="2"/>
<feComposite in2="hardAlpha" operator="out"/>
<feColorMatrix type="matrix" values="0 0 0 0 0 0 0 0 0 0 0 0 0 0 0 0 0 0 0.25 0"/>
<feBlend mode="normal" in2="BackgroundImageFix" result="effect1_dropShadow_0_1"/>
<feBlend mode="normal" in="SourceGraphic" in2="effect1_dropShadow_0_1" result="shape"/>
</filter>
<clipPath id="clip0_0_1">
<rect width="2000" height="200" fill="white" transform="translate(4)"/>
</clipPath>
</defs>
</svg>
